<?xml version="1.0" encoding="UTF-8" standalone="no"?>
<!-- Created with Inkscape (http://www.inkscape.org/) -->

<svg
   xmlns:dc="http://purl.org/dc/elements/1.1/"
   xmlns:cc="http://creativecommons.org/ns#"
   xmlns:rdf="http://www.w3.org/1999/02/22-rdf-syntax-ns#"
   xmlns:svg="http://www.w3.org/2000/svg"
   xmlns="http://www.w3.org/2000/svg"
   xmlns:sodipodi="http://sodipodi.sourceforge.net/DTD/sodipodi-0.dtd"
   xmlns:inkscape="http://www.inkscape.org/namespaces/inkscape"
   width="488.09"
   height="300"
   id="svg2"
   version="1.1"
   inkscape:version="0.48.4 r9939"
   sodipodi:docname="code-for-dc-logo.svg"
   inkscape:export-filename="/home/user/dev/codefordc-2.0/assets/logo/cfdc_logo_large.png"
   inkscape:export-xdpi="149.88599"
   inkscape:export-ydpi="149.88599">
  <defs
     id="defs4" />
  <sodipodi:namedview
     id="base"
     pagecolor="#ffffff"
     bordercolor="#666666"
     borderopacity="1.0"
     inkscape:pageopacity="0.0"
     inkscape:pageshadow="2"
     inkscape:zoom="1.6587868"
     inkscape:cx="205.62958"
     inkscape:cy="154.72585"
     inkscape:document-units="px"
     inkscape:current-layer="layer1"
     showgrid="false"
     inkscape:window-width="1631"
     inkscape:window-height="1026"
     inkscape:window-x="49"
     inkscape:window-y="24"
     inkscape:window-maximized="1" />
  <metadata
     id="metadata7">
    <rdf:RDF>
      <cc:Work
         rdf:about="">
        <dc:format>image/svg+xml</dc:format>
        <dc:type
           rdf:resource="http://purl.org/dc/dcmitype/StillImage" />
        <dc:title></dc:title>
      </cc:Work>
    </rdf:RDF>
  </metadata>
  <g
     inkscape:label="Layer 1"
     inkscape:groupmode="layer"
     id="layer1"
     transform="translate(0,-752.36218)">
    <text
       xml:space="preserve"
       style="font-size:241.25592041px;font-style:normal;font-weight:normal;line-height:125%;letter-spacing:0px;word-spacing:0px;fill:#000000;fill-opacity:1;stroke:none;font-family:Sans"
       x="4.8403587"
       y="817.47382"
       id="text2985"
       sodipodi:linespacing="125%"
       transform="scale(0.82168542,1.2170108)"><tspan
         sodipodi:role="line"
         id="tspan2987"
         x="4.8403587"
         y="817.47382"
         style="font-style:normal;font-variant:normal;font-weight:bold;font-stretch:normal;fill:#399fd3;fill-opacity:1;font-family:Gentium;-inkscape-font-specification:Gentium"><tspan
           style="font-style:normal;font-variant:normal;font-weight:bold;font-stretch:normal;fill:#399fd3;fill-opacity:1;font-family:URW Gothic L;-inkscape-font-specification:URW Gothic L Semi-Bold"
           id="tspan2989">&lt;   </tspan><tspan
           style="font-style:normal;font-weight:bold;letter-spacing:-26.60190201px"
           id="tspan3856">/</tspan><tspan
           style="font-style:normal;font-variant:normal;font-weight:bold;font-stretch:normal;letter-spacing:-26.60190201px;word-spacing:0px;fill:#399fd3;fill-opacity:1;font-family:URW Gothic L;-inkscape-font-specification:URW Gothic L Semi-Bold Oblique"
           id="tspan3007">&gt;</tspan></tspan></text>
    <rect
       style="fill:#ffffff;fill-opacity:1;stroke:none"
       id="rect4007-2"
       width="33.311749"
       height="35.357143"
       x="304.80252"
       y="949.85815" />
    <rect
       style="fill:#cf1b41;fill-opacity:1;stroke:none"
       id="rect3789"
       width="232.70984"
       height="32.775391"
       x="126.18839"
       y="951.24725" />
    <rect
       style="fill:#ffffff;fill-opacity:1;stroke:none"
       id="rect4007"
       width="33.311749"
       height="35.357143"
       x="314.89215"
       y="901.64386" />
    <rect
       style="fill:#cf1b41;fill-opacity:1;stroke:none"
       id="rect3789-4"
       width="232.70984"
       height="32.775391"
       x="126.18839"
       y="902.99457" />
    <path
       sodipodi:type="star"
       style="fill:#cf1b41;fill-opacity:1;stroke:none"
       id="path3827"
       sodipodi:sides="5"
       sodipodi:cx="120.20815"
       sodipodi:cy="296.76807"
       sodipodi:r1="46.510918"
       sodipodi:r2="23.255459"
       sodipodi:arg1="0.97074611"
       sodipodi:arg2="1.5936935"
       inkscape:flatsided="false"
       inkscape:rounded="0.3"
       inkscape:randomized="0.09"
       d="m 145.80692,335.86601 c -7.95913,4.80043 -19.61527,-18.21357 -28.48263,-18.6928 -8.93107,-0.48268 -13.79634,19.7568 -21.439954,14.95036 -7.589084,-4.77216 5.745864,-16.52153 4.338404,-25.95775 -1.417576,-9.50401 -23.759081,-18.29254 -19.640747,-26.78665 4.088956,-8.43351 21.219047,6.39173 28.829257,1.8707 7.66489,-4.55352 -0.54155,-32.88996 8.6092,-32.37266 9.08548,0.5136 10.89118,20.77427 17.93556,27.15534 7.095,6.42691 26.94379,2.23918 30.50495,10.73553 3.53577,8.43575 -21.85563,5.52697 -25.09284,14.32332 -3.26046,8.85954 12.45512,29.93969 4.4388,34.77461 z"
       inkscape:transform-center-x="-0.1635346"
       inkscape:transform-center-y="-2.614187"
       transform="matrix(0.73718787,-0.00779471,0.00875643,0.65622302,75.145941,671.06211)" />
    <path
       sodipodi:type="star"
       style="fill:#cf1b41;fill-opacity:1;stroke:none"
       id="path3827-9"
       sodipodi:sides="5"
       sodipodi:cx="120.20815"
       sodipodi:cy="296.76807"
       sodipodi:r1="46.510918"
       sodipodi:r2="23.255459"
       sodipodi:arg1="0.97074611"
       sodipodi:arg2="1.5936935"
       inkscape:flatsided="false"
       inkscape:rounded="0.3"
       inkscape:randomized="0.09"
       d="m 145.80692,335.86601 c -7.95913,4.80043 -19.61527,-18.21357 -28.48263,-18.6928 -8.93107,-0.48268 -13.79634,19.7568 -21.439954,14.95036 -7.589084,-4.77216 5.745864,-16.52153 4.338404,-25.95775 -1.417576,-9.50401 -23.759081,-18.29254 -19.640747,-26.78665 4.088956,-8.43351 21.219047,6.39173 28.829257,1.8707 7.66489,-4.55352 -0.54155,-32.88996 8.6092,-32.37266 9.08548,0.5136 10.89118,20.77427 17.93556,27.15534 7.095,6.42691 26.94379,2.23918 30.50495,10.73553 3.53577,8.43575 -21.85563,5.52697 -25.09284,14.32332 -3.26046,8.85954 12.45512,29.93969 4.4388,34.77461 z"
       inkscape:transform-center-x="-0.15397861"
       inkscape:transform-center-y="-2.4695175"
       transform="matrix(0.73718787,-0.00779471,0.00875643,0.65622302,150.27861,662.14405)" />
    <path
       sodipodi:type="star"
       style="fill:#cf1b41;fill-opacity:1;stroke:none"
       id="path3827-2"
       sodipodi:sides="5"
       sodipodi:cx="120.20815"
       sodipodi:cy="296.76807"
       sodipodi:r1="46.510918"
       sodipodi:r2="23.255459"
       sodipodi:arg1="0.97074611"
       sodipodi:arg2="1.5936935"
       inkscape:flatsided="false"
       inkscape:rounded="0.3"
       inkscape:randomized="0.09"
       d="m 145.80692,335.86601 c -7.95913,4.80043 -19.61527,-18.21357 -28.48263,-18.6928 -8.93107,-0.48268 -13.79634,19.7568 -21.439954,14.95036 -7.589084,-4.77216 5.745864,-16.52153 4.338404,-25.95775 -1.417576,-9.50401 -23.759081,-18.29254 -19.640747,-26.78665 4.088956,-8.43351 21.219047,6.39173 28.829257,1.8707 7.66489,-4.55352 -0.54155,-32.88996 8.6092,-32.37266 9.08548,0.5136 10.89118,20.77427 17.93556,27.15534 7.095,6.42691 26.94379,2.23918 30.50495,10.73553 3.53577,8.43575 -21.85563,5.52697 -25.09284,14.32332 -3.26046,8.85954 12.45512,29.93969 4.4388,34.77461 z"
       inkscape:transform-center-x="-0.15397861"
       inkscape:transform-center-y="-2.4695175"
       transform="matrix(0.73718787,-0.00779471,0.00875643,0.65622302,215.69701,633.45006)" />
  </g>
</svg>
